<svg width="16" height="16" viewBox="0 0 16 16" fill="none" xmlns="http://www.w3.org/2000/svg">
<path d="M7.99967 14.6663C11.6816 14.6663 14.6663 11.6816 14.6663 7.99967C14.6663 4.31778 11.6816 1.33301 7.99967 1.33301C4.31778 1.33301 1.33301 4.31778 1.33301 7.99967C1.33301 11.6816 4.31778 14.6663 7.99967 14.6663Z" stroke="black" stroke-width="2" stroke-linecap="round" stroke-linejoin="round"/>
<path d="M6.05957 5.9994C6.21631 5.55385 6.52567 5.17814 6.93287 4.93883C7.34007 4.69951 7.81883 4.61203 8.28435 4.69188C8.74987 4.77173 9.17211 5.01375 9.47629 5.37509C9.78046 5.73642 9.94694 6.19375 9.94624 6.66607C9.94624 7.9994 7.94624 8.66607 7.94624 8.66607" stroke="black" stroke-width="2" stroke-linecap="round" stroke-linejoin="round"/>
<path d="M8 11.333H8.00667" stroke="black" stroke-width="2" stroke-linecap="round" stroke-linejoin="round"/>
</svg>
